PathFileType	4	(X/Y/Z)	/Users/itak/Documents/Research/Walk-IL/dataset/trc/00527_00183.trc
DataRate	CameraRate	NumFrames	NumMarkers	Units	OrigDataRate	OrigDataStartFrame	OrigNumFrames
100.000000	100.000000	4	53	mm	100.000000	178	477
Frame#	Time	RPSI			LPSI			L3			STRN			T10			C7			CLAV			RBAK			LBAK			LSHO			LUPA			LAEL			LAOL			LWTS			LWPS			LFRA			LIFD			LHPS			LHTS			RSHO			RUPA			RAEL			RAOL			RWTS			RWPS			RFRA			RIFD			RHTS			RHPS			RBHD			LFHD			RFHD			LBHD			LHIP			RHIP			RASI			LASI			LKNE			LTHI			LANK			LTIP			LTOE			LMT1			LMT5			LHEE			RKNE			RTHI			RANK			RTIP			RTOE			RMT1			RMT5			RHEE			
		X1	Y1	Z1	X2	Y2	Z2	X3	Y3	Z3	X4	Y4	Z4	X5	Y5	Z5	X6	Y6	Z6	X7	Y7	Z7	X8	Y8	Z8	X9	Y9	Z9	X10	Y10	Z10	X11	Y11	Z11	X12	Y12	Z12	X13	Y13	Z13	X14	Y14	Z14	X15	Y15	Z15	X16	Y16	Z16	X17	Y17	Z17	X18	Y18	Z18	X19	Y19	Z19	X20	Y20	Z20	X21	Y21	Z21	X22	Y22	Z22	X23	Y23	Z23	X24	Y24	Z24	X25	Y25	Z25	X26	Y26	Z26	X27	Y27	Z27	X28	Y28	Z28	X29	Y29	Z29	X30	Y30	Z30	X31	Y31	Z31	X32	Y32	Z32	X33	Y33	Z33	X34	Y34	Z34	X35	Y35	Z35	X36	Y36	Z36	X37	Y37	Z37	X38	Y38	Z38	X39	Y39	Z39	X40	Y40	Z40	X41	Y41	Z41	X42	Y42	Z42	X43	Y43	Z43	X44	Y44	Z44	X45	Y45	Z45	X46	Y46	Z46	X47	Y47	Z47	X48	Y48	Z48	X49	Y49	Z49	X50	Y50	Z50	X51	Y51	Z51	X52	Y52	Z52	X53	Y53	Z53	

179	1.78	-981.3480224609375	943.4400024414062	-390.7471008300781	-915.0650024414062	938.9710083007812	-494.9254455566406	-940.6173095703125	1017.561889648438	-451.3219909667969	-739.3385620117188	1169.255126953125	-342.3742370605469	-949.1988525390625	1122.726928710938	-457.1838073730469	-902.5049438476562	1350.309448242188	-424.1834106445312	-768.604736328125	1265.819946289062	-355.3825073242188	-989.6776733398438	1229.917602539062	-377.2221374511719	-884.078857421875	1299.442504882812	-514.7774658203125	-764.5580444335938	1343.829345703125	-532.3336181640625	-744.630859375	1220.166259765625	-595.4896850585938	-716.9332275390625	1011.143798828125	-617.2658081054688	-815.6563110351562	1000.692260742188	-604.8907470703125	-665.524169921875	822.45458984375	-539.7054443359375	-701.9153442382812	788.9287719726562	-620.0277099609375	-700.4932250976562	927.3301391601562	-611.4080200195312	-667.4557495117188	664.9629516601562	-535.5336303710938	-684.3882446289062	734.9657592773438	-603.2664184570312	-646.077392578125	744.93017578125	-552.1680908203125	-924.5879516601562	1339.439453125	-268.250732421875	-970.2639770507812	1272.966674804688	-228.6701965332031	-996.0064086914062	1006.066711425781	-188.2814483642578	-1021.678344726562	989.3440551757812	-247.4725036621094	-890.2089233398438	807.7293090820312	-155.997802734375	-978.8838500976562	785.4472045898438	-156.2430114746094	-995.0023803710938	951.55859375	-178.7158050537109	-891.6998901367188	647.06787109375	-147.6192016601562	-891.3303833007812	714.7056274414062	-124.4868087768555	-960.306396484375	712.9537963867188	-141.2338714599609	-920.62890625	1489.741943359375	-330.5050048828125	-747.7925415039062	1575.287841796875	-385.0779724121094	-815.4072265625	1561.37158203125	-277.8942565917969	-848.1884765625	1500.70947265625	-471.6896057128906	-762.0900268554688	856.6796264648438	-553.8968505859375	-947.6224975585938	855.9683837890625	-222.1176605224609	-831.3828735351562	900.3416137695312	-238.6904602050781	-711.4077758789062	891.7144775390625	-448.9587097167969	-848.7694091796875	445.6905517578125	-532.9163818359375	-789.0829467773438	594.9349365234375	-531.35693359375	-1054.33935546875	64.39924621582031	-618.96484375	-918.1690673828125	309.0590515136719	-568.3792724609375	-917.9224243164062	38.69255065917969	-469.8772888183594	-998.5886840820312	46.23051452636719	-480.4541320800781	-955.37158203125	43.81166076660156	-572.9144897460938	-1125.344848632812	74.58731842041016	-587.9327392578125	-806.2350463867188	490.0821533203125	-203.4139709472656	-896.3739624023438	735.0548706054688	-193.3636932373047	-774.2101440429688	49.49294281005859	-208.0004119873047	-763.3518676757812	347.9403381347656	-192.3051910400391	-585.2498779296875	80.63236236572266	-147.0438537597656	-619.56298828125	69.60240936279297	-212.5470886230469	-685.8992919921875	62.30031967163086	-140.7095642089844	-794.00048828125	33.39213943481445	-274.2515563964844	
180	1.79	-975.5126342773438	942.8442993164062	-385.0842895507812	-908.9730224609375	938.2345581054688	-489.1466064453125	-935.1333618164062	1016.544250488281	-445.8648071289062	-734.287109375	1169.109741210938	-337.5970153808594	-944.1004028320312	1121.609619140625	-452.0975952148438	-898.057373046875	1349.52685546875	-419.9033508300781	-763.8593139648438	1265.557373046875	-350.9397888183594	-984.8013916015625	1228.924560546875	-372.4374694824219	-879.6395874023438	1298.377807617188	-510.3287048339844	-760.3425903320312	1342.994262695312	-528.2744140625	-740.3685913085938	1219.189697265625	-591.1779174804688	-712.6604614257812	1010.140380859375	-612.8692016601562	-811.3467407226562	999.6572265625	-600.1903076171875	-661.100341796875	821.5484619140625	-535.3616333007812	-697.5074462890625	788.0084838867188	-615.6610717773438	-696.17578125	926.31884765625	-607.0543823242188	-662.9837646484375	664.0813598632812	-531.2330322265625	-679.9608154296875	734.0709838867188	-598.9185180664062	-641.76708984375	743.9815673828125	-547.84716796875	-920.0661010742188	1338.96826171875	-263.822509765625	-965.6455078125	1272.426391601562	-224.1960144042969	-991.763916015625	1005.5595703125	-183.8563537597656	-1016.985534667969	988.8279418945312	-243.2164306640625	-886.8989868164062	806.7927856445312	-150.9858245849609	-975.6099853515625	784.8502807617188	-152.2578735351562	-990.9357299804688	951.0022583007812	-174.2840881347656	-889.0464477539062	646.1241455078125	-143.1564025878906	-888.5969848632812	713.6876220703125	-119.8763275146484	-957.4998168945312	712.2417602539062	-137.2428894042969	-915.9269409179688	1489.64013671875	-326.2193603515625	-743.0087280273438	1574.651489257812	-381.4385681152344	-810.2728881835938	1560.977661132812	-274.0465698242188	-843.8930053710938	1500.346313476562	-467.6938781738281	-756.2315673828125	856.0082397460938	-548.4302368164062	-941.23681640625	854.9821166992188	-216.7803802490234	-825.2620239257812	899.97900390625	-233.2599182128906	-705.39306640625	891.2755126953125	-443.6611022949219	-843.234130859375	445.2288513183594	-527.7894287109375	-783.10595703125	594.4952392578125	-525.9962768554688	-1053.370361328125	67.25292205810547	-618.7647094726562	-913.666748046875	309.5874328613281	-564.9154663085938	-917.8321533203125	38.64216995239258	-469.7576904296875	-998.0454711914062	46.91686248779297	-480.292724609375	-954.8101196289062	44.26028823852539	-572.8123168945312	-1124.081298828125	78.65169525146484	-587.5792846679688	-800.1527099609375	489.2669982910156	-199.8725280761719	-890.0419921875	734.2398681640625	-188.3149566650391	-773.269775390625	49.25243377685547	-207.7342529296875	-758.3046264648438	346.6604919433594	-189.6103515625	-583.3594970703125	75.86775207519531	-146.4757690429688	-617.8827514648438	66.19800567626953	-212.1547393798828	-684.51123046875	59.74283981323242	-140.5570068359375	-793.08984375	33.79050064086914	-274.2164001464844	
181	1.8	-969.579345703125	942.478515625	-379.3899841308594	-902.767333984375	937.7464599609375	-483.3121948242188	-929.5171508789062	1015.717529296875	-440.2877502441406	-729.18505859375	1169.198974609375	-332.6803588867188	-938.9056396484375	1120.691040039062	-446.8857421875	-893.576416015625	1348.951782226562	-415.4985656738281	-759.0758666992188	1265.524536132812	-346.3731079101562	-979.8392333984375	1228.125	-367.5383605957031	-875.1570434570312	1297.5126953125	-505.7544555664062	-756.07861328125	1342.352905273438	-524.0928344726562	-736.1356811523438	1218.398681640625	-586.7734375	-708.4595947265625	1009.328063964844	-608.4406127929688	-807.1043701171875	998.8109130859375	-595.3148193359375	-656.6384887695312	820.8350219726562	-531.087890625	-693.2274169921875	787.273193359375	-611.284912109375	-691.9390258789062	925.4872436523438	-602.6953735351562	-658.38427734375	663.3897094726562	-527.0781860351562	-675.589599609375	733.3797607421875	-594.6365356445312	-637.399169921875	743.240478515625	-543.6703491210938	-915.5359497070312	1338.708984375	-259.2743835449219	-960.99365234375	1272.083129882812	-219.6194610595703	-987.4671630859375	1005.231872558594	-179.3700103759766	-1012.131896972656	988.4680786132812	-238.9482421875	-883.5263671875	806.036865234375	-145.8240814208984	-972.2451171875	784.422607421875	-148.3118743896484	-986.7963256835938	950.6193237304688	-169.8204193115234	-886.3101806640625	645.3674926757812	-138.6040954589844	-885.85302734375	712.8470458984375	-115.1504211425781	-954.6109619140625	711.6945190429688	-133.3032073974609	-911.19873046875	1489.76953125	-321.8705444335938	-738.1975708007812	1574.226318359375	-377.7672424316406	-805.1146240234375	1560.82763671875	-270.1564025878906	-839.5868530273438	1500.178344726562	-463.6334838867188	-750.1465454101562	855.5564575195312	-542.8010864257812	-934.8291015625	854.2297973632812	-211.4167327880859	-819.1141357421875	899.8502807617188	-227.6850280761719	-699.2941284179688	891.0431518554688	-438.155517578125	-837.1282348632812	444.76416015625	-522.2645874023438	-776.7198486328125	594.19287109375	-520.3399658203125	-1052.105712890625	70.53168487548828	-618.5037231445312	-908.6238403320312	310.2666320800781	-561.2044677734375	-917.7396850585938	38.62870025634766	-469.6776428222656	-997.3887939453125	47.77285766601562	-480.0692138671875	-954.1519165039062	44.76927185058594	-572.7281494140625	-1122.444091796875	83.31242370605469	-587.1324462890625	-794.1310424804688	488.6253051757812	-196.2847442626953	-883.75048828125	733.6265869140625	-183.2086486816406	-772.3267211914062	49.18334579467773	-207.4259185791016	-753.2268676757812	345.5992126464844	-186.8686981201172	-581.4163818359375	71.28582763671875	-146.0650177001953	-616.2545776367188	63.06682968139648	-211.8919677734375	-683.0890502929688	57.42099380493164	-140.4937438964844	-792.2576293945312	34.38536071777344	-274.084228515625	
182	1.81	-963.5711669921875	942.350341796875	-373.71142578125	-896.4797973632812	937.5151977539062	-477.471435546875	-923.7685546875	1015.104125976562	-434.6390075683594	-724.0491333007812	1169.536010742188	-327.6433410644531	-933.6055297851562	1120.007202148438	-441.5679016113281	-889.06005859375	1348.607421875	-410.9800109863281	-754.2597045898438	1265.740234375	-341.6913757324219	-974.8074951171875	1227.557495117188	-362.5458068847656	-870.6281127929688	1296.883056640625	-501.0687561035156	-751.7562255859375	1341.936767578125	-519.7784423828125	-731.9210815429688	1217.832763671875	-582.2736206054688	-704.3331298828125	1008.752563476562	-603.9744873046875	-802.9334106445312	998.205078125	-590.2559814453125	-652.13916015625	820.346435546875	-526.8897705078125	-689.0896606445312	786.7596435546875	-606.9000244140625	-687.7850952148438	924.8838500976562	-598.3258666992188	-653.6875	662.9122314453125	-523.0654296875	-671.3027954101562	732.9281005859375	-590.4195556640625	-632.9649047851562	742.7427978515625	-539.6402587890625	-910.9931640625	1338.6923828125	-254.6195831298828	-956.3053588867188	1271.978637695312	-214.9483489990234	-983.0955200195312	1005.1298828125	-174.8338928222656	-1007.115112304688	988.31396484375	-234.6665344238281	-880.0828247070312	805.4932861328125	-140.5274963378906	-968.7804565429688	784.19775390625	-144.4010772705078	-982.574462890625	950.4620971679688	-165.3274993896484	-883.4827880859375	644.8301391601562	-133.9775085449219	-883.0942993164062	712.2159423828125	-110.3131408691406	-951.617919921875	711.3450317382812	-129.4283905029297	-906.4426879882812	1490.146484375	-317.4673461914062	-733.361083984375	1574.024291992188	-374.0735778808594	-799.93701171875	1560.939331054688	-266.2282409667969	-835.2699584960938	1500.211791992188	-459.513427734375	-743.8712158203125	855.338134765625	-537.0492553710938	-928.4495849609375	853.776611328125	-206.0654144287109	-812.9581909179688	899.9879150390625	-221.9836578369141	-693.1582641601562	891.0342407226562	-432.4719543457031	-830.29736328125	444.2701416015625	-516.3057250976562	-769.867919921875	594.0197143554688	-514.3521118164062	-1050.4736328125	74.28430938720703	-618.1318359375	-902.9293823242188	311.0887451171875	-557.2026977539062	-917.641357421875	38.64707565307617	-469.6320495605469	-996.5974731445312	48.80501937866211	-479.7574768066406	-953.3713989257812	45.33901214599609	-572.6427001953125	-1120.33984375	88.63724517822266	-586.5307006835938	-788.2008666992188	488.1558837890625	-192.5860595703125	-877.49853515625	733.2654418945312	-178.0326843261719	-771.384033203125	49.23153686523438	-207.0829010009766	-748.1607055664062	344.7417907714844	-184.0979156494141	-579.485107421875	66.98542785644531	-145.7670593261719	-614.719482421875	60.27649688720703	-211.7208709716797	-681.6748046875	55.36130523681641	-140.4797668457031	-791.5025634765625	35.09816741943359	-273.8518371582031	
